# xmcd
#
# Track frame offsets:
#	150
#	16910
#	33598
#	50464
#	62814
#	78908
#	97020
#	114625
#	134381
#	151222
#
# Disc length: 2207 seconds
#
# Revision: 2
# Processed by: cddbd v1.5.1PL2 Copyright (c) Steve Scherf et al.
# Submitted via: EasyCDDAExtractor 9.0.0.1
#
DISCID=7d089d0a
DTITLE=Shania Twain - Beginnings
DYEAR=2005
DGENRE=Country
TTITLE0=Wild And Wicked
TTITLE1=Send It With Love
TTITLE2=(Don't Gimme That) Once Over
TTITLE3=Bite My Lip
TTITLE4=Luv Eyes
TTITLE5=Hate To Love
TTITLE6=Rhythm Made Me Do It
TTITLE7=I Lost My Heart When I Found You
TTITLE8=Two Hearts One Love
TTITLE9=Half Breed
EXTD=YEAR: 2005
EXTT0=
EXTT1=
EXTT2=
EXTT3=
EXTT4=
EXTT5=
EXTT6=
EXTT7=
EXTT8=
EXTT9=
PLAYORDER=
